<?xml version="1.0" standalone="no"?><!DOCTYPE svg PUBLIC "-//W3C//DTD SVG 1.1//EN" "http://www.w3.org/Graphics/SVG/1.1/DTD/svg11.dtd"><svg t="1552637667283" class="icon" style="" viewBox="0 0 1024 1024" version="1.1" xmlns="http://www.w3.org/2000/svg" p-id="2532" xmlns:xlink="http://www.w3.org/1999/xlink" width="200" height="200"><defs><style type="text/css"></style></defs><path d="M512 1024C229.2224 1024 0 794.7776 0 512 0 229.2224 229.2224 0 512 0c282.7776 0 512 229.2224 512 512 0 282.7776-229.2224 512-512 512z m76.8-419.2256c-31.0272-63.1808-18.363733-50.944 1.8432-66.577067 18.944-14.6944 18.056533-53.162667 29.6448-66.901333 11.776-13.960533 17.186133-53.828267 12.765867-68.898133-5.870933-19.968-14.865067-9.045333-16.213334-24.1152-2.952533-32.494933 5.154133-59.221333-12.919466-75.025067-17.4592-15.274667-39.3216-46.7968-74.922667-47.2576-12.407467-0.1536-26.4704 3.584-42.5984 12.970667-76.8-8.311467-76.305067 76.8512-79.240533 109.3632-1.365333 15.069867-10.376533 4.215467-16.213334 24.183466-4.437333 15.0528 0.989867 55.057067 12.7488 69.0176 11.605333 13.755733 10.7008 52.48 29.6448 67.157334 20.206933 15.650133 32.8704 3.925333 1.8432 67.106133-15.616 31.8464-117.998933 17.4592-138.154666 45.3632C281.6 672.4608 281.617067 716.8 281.6 716.8h460.8s0-44.3392-15.445333-65.6384c-20.138667-27.886933-122.538667-14.506667-138.154667-46.3872z" fill="#7AAFFF" p-id="2533"></path></svg>