<svg class="icon" viewBox="0 0 1024 1024" xmlns="http://www.w3.org/2000/svg" width="200" height="200"><defs><style/></defs><path d="M960 720V48c0-26.6-21.4-48-48-48H256C150 0 64 86 64 192v640c0 106 86 192 192 192h656c26.6 0 48-21.4 48-48v-32c0-15-7-28.6-17.8-37.4-8.4-30.8-8.4-118.6 0-149.4C953 748.6 960 735 960 720zM320 268c0-6.6 5.4-12 12-12h424c6.6 0 12 5.4 12 12v40c0 6.6-5.4 12-12 12H332c-6.6 0-12-5.4-12-12v-40zm0 128c0-6.6 5.4-12 12-12h424c6.6 0 12 5.4 12 12v40c0 6.6-5.4 12-12 12H332c-6.6 0-12-5.4-12-12v-40zm506.8 500H256c-35.4 0-64-28.6-64-64 0-35.2 28.8-64 64-64h570.8c-3.8 34.2-3.8 93.8 0 128z"/></svg>