<svg class="icon" viewBox="0 0 1024 1024" xmlns="http://www.w3.org/2000/svg" width="200" height="200"><defs><style/></defs><path d="M979.125 545.452h-71.228V111.735c0-23.835-9.141-45.434-24.665-61.521l-1.671-1.396c-16.065-16.058-38.254-26.303-62.63-26.303H202.023c-24.407 0-46.853 10.246-62.627 26.303-16.347 16.352-26.053 38.26-26.053 62.917v433.717H41.826c-21.624 0-39.076 17.483-39.076 39.076v355.848c0 21.63 17.452 39.083 39.076 39.083h937.297c21.316 0 39.334-17.453 39.334-39.083V584.534c0-21.599-18.017-39.082-39.332-39.082zM159.882 111.735c0-11.634 4.995-22.164 12.207-29.652 7.746-7.751 18.301-12.457 29.935-12.457h616.909c11.636 0 21.875 4.712 29.934 12.457l1.106.817c6.64 7.778 10.813 17.741 10.813 28.835v433.717H750.198v.283c-18.847 0-35.758 13.595-38.26 32.983-7.746 48.775-33.226 92.286-69.274 122.761-35.753 30.512-82.04 48.789-131.903 48.789-50.717 0-97-18.282-132.474-48.789-35.47-30.193-60.416-72.052-68.195-119.703-2.21-20.518-18.84-36.324-39.333-36.324H159.882V111.735zm779.884 789.308H80.619v-277.15h159.1c15.234 54.033 46.538 101.427 87.858 136.897 49.603 42.148 113.344 67.628 183.185 67.628 69.275 0 133.581-25.48 182.337-67.628 41.577-35.47 72.905-82.864 88.14-136.897h158.527v277.15z"/><path d="M338.192 510.642c13.885 13.89 36.394 13.89 50.285 0l122.13-122.132L632.74 510.642c13.884 13.89 36.4 13.89 50.282 0 13.884-13.884 13.884-36.394 0-50.278L560.888 338.229 683.02 216.097c13.884-13.885 13.884-36.394 0-50.285-13.882-13.882-36.398-13.882-50.282 0L510.606 287.946l-122.13-122.134c-13.89-13.882-36.4-13.882-50.284 0-13.884 13.89-13.884 36.4 0 50.285l122.133 122.132-122.133 122.136c-13.884 13.884-13.884 36.393 0 50.277z"/></svg>