<svg class="icon" viewBox="0 0 1024 1024" xmlns="http://www.w3.org/2000/svg" width="200" height="200"><defs><style/></defs><path d="M513.655 208.14c-149.304 0-298.607.023-447.912-.018-34.41-.01-60.707-27.26-59.732-61.651.879-31.01 26.732-56.561 57.77-57.094 1.1-.019 2.199-.014 3.298-.014 297.874 0 595.748-.003 893.622.004 28.388.001 51.56 16.962 58.86 42.997 10.789 38.47-17.377 75.74-57.446 75.754-149.487.053-298.974.021-448.46.021zm.888 245.093c148.756 0 297.51-.015 446.267.01 29.226.006 52.44 17.783 59.295 45.22 9.236 36.957-18.395 72.968-56.44 73.553-1.648.025-3.296.03-4.945.03-296.595.002-593.19-.033-889.786.065-25.413.008-44.866-9.959-56.509-32.73-20.362-39.822 8.526-86.083 53.654-86.112 149.488-.096 298.975-.036 448.464-.036zm-.053 363.862c148.575 0 297.147-.014 445.721.012 27.605.005 49.587 14.948 58.206 39.36 13.8 39.086-14.702 79.408-56.345 79.424-150.59.062-301.178.025-451.767.025-148.024 0-296.048.017-444.072-.012-34.655-.008-60.948-26.809-60.23-61.217.655-31.344 26.418-57.337 57.822-57.478 60.087-.27 120.177-.108 180.266-.112 90.133-.007 180.267-.002 270.4-.002z"/></svg>