<svg class="icon" viewBox="0 0 1193 1024" xmlns="http://www.w3.org/2000/svg" width="233.008" height="200"><defs><style/></defs><path d="M1142.608 468.98H1023.23c-25.58 0-42.635 17.055-42.635 42.635s17.054 42.635 42.635 42.635h119.377c25.58 0 42.634-17.054 42.634-42.635s-17.053-42.634-42.634-42.634zM972.069 289.916l85.27-85.269c17.053-17.054 17.053-42.634 0-59.688s-42.635-17.054-59.689 0l-85.27 85.269c-17.053 17.054-17.053 42.635 0 59.688 8.528 8.527 42.635 8.527 59.69 0zm0 443.4c-17.054-17.053-42.634-17.053-59.688 0s-17.054 42.635 0 59.689l85.27 85.27c17.053 17.053 42.634 17.053 59.688 0 17.053-17.055 17.053-42.635 0-59.69l-85.27-85.269zM741.842 306.97V93.796c0-51.161-34.107-85.27-85.269-85.27-25.58-8.526-42.634 0-59.688 8.528L298.442 255.808H144.958C68.215 255.808 0 315.496 0 392.238v238.754C0 707.735 68.215 775.95 144.958 775.95h162.011l289.916 230.227c25.58 17.054 59.688 25.58 93.796 8.527 34.108-17.054 51.161-42.635 51.161-76.742v-221.7c93.797-25.581 153.485-102.323 153.485-204.647 0-93.796-68.215-179.065-153.485-204.646zM332.55 690.681H144.958c-34.108 0-59.689-25.58-59.689-59.689V392.24c0-25.581 25.581-51.162 59.689-51.162H332.55L656.573 85.269v844.166L332.55 690.68zm409.292-68.216V392.24c42.635 25.58 68.216 68.215 68.216 119.376 0 51.162-25.581 93.797-68.216 110.85z"/></svg>