<svg class="icon" viewBox="0 0 1024 1024" xmlns="http://www.w3.org/2000/svg" width="200" height="200"><defs><style/></defs><path d="M941.549 630.587a444.308 444.308 0 0 1-41.95 100.846 126.808 126.808 0 0 1-167.734 167.734 442.134 442.134 0 0 1-100.91 41.95 127.384 127.384 0 0 1-238.077 0 442.837 442.837 0 0 1-100.845-41.95 126.808 126.808 0 0 1-167.735-167.734 441.238 441.238 0 0 1-41.95-100.846 127.448 127.448 0 0 1 0-238.077 441.238 441.238 0 0 1 41.95-100.845A126.808 126.808 0 0 1 292.033 123.93a442.517 442.517 0 0 1 100.845-41.885 127.384 127.384 0 0 1 238.077 0 441.814 441.814 0 0 1 100.91 41.95 126.808 126.808 0 0 1 167.734 167.734 444.308 444.308 0 0 1 41.95 100.845 127.448 127.448 0 0 1 0 238.013zm-45.915-182.954h-6.394a375.372 375.372 0 0 0-17.074-63.947 364.501 364.501 0 0 0-14.836-36.578 382.535 382.535 0 0 0-33.125-57.553l4.284-4.349a63.948 63.948 0 1 0-90.421-90.422l-4.285 4.349a381.831 381.831 0 0 0-93.939-47.769 377.93 377.93 0 0 0-63.948-17.074v-6.395a63.948 63.948 0 1 0-127.895 0v6.395a421.35 421.35 0 0 0-100.525 31.974 382.599 382.599 0 0 0-57.553 33.125l-4.349-4.349a63.948 63.948 0 0 0-90.422 90.422l4.349 4.349a403.83 403.83 0 0 0-64.843 157.822h-6.395a63.948 63.948 0 0 0 0 127.895h6.395a375.245 375.245 0 0 0 17.01 63.948 381.128 381.128 0 0 0 14.9 36.578 377.29 377.29 0 0 0 33.125 57.553l-4.349 4.348a63.948 63.948 0 0 0 0 90.422 63.948 63.948 0 0 0 90.422 0l4.349-4.348a382.599 382.599 0 0 0 57.552 33.125 421.67 421.67 0 0 0 100.526 31.973v6.14a63.948 63.948 0 0 0 127.895 0v-6.395a377.994 377.994 0 0 0 63.948-17.074 381.831 381.831 0 0 0 93.875-48.025l4.284 4.348a63.948 63.948 0 0 0 90.422 0 63.948 63.948 0 0 0 0-90.421l-4.284-4.349a382.535 382.535 0 0 0 33.125-57.553 365.588 365.588 0 0 0 14.644-36.322 375.372 375.372 0 0 0 17.074-63.948h6.458a63.948 63.948 0 0 0 0-127.895zM511.95 703.423a191.843 191.843 0 1 1 191.843-191.842A191.843 191.843 0 0 1 511.95 703.424zm0-319.737A127.895 127.895 0 1 0 639.844 511.58a127.895 127.895 0 0 0-127.895-127.895z"/></svg>