<svg class="icon" viewBox="0 0 1024 1024" xmlns="http://www.w3.org/2000/svg" width="200" height="200"><defs><style/></defs><path d="M721.455 512h-162.91V372.364a46.545 46.545 0 1 0-93.09 0v186.181a46.545 46.545 0 0 0 7.68 25.6l1.861 2.328a46.545 46.545 0 0 0 27.23 17.454 46.545 46.545 0 0 0 9.774 1.164h209.455a46.545 46.545 0 0 0 0-93.091zM418.909 93.09h186.182a46.545 46.545 0 0 0 0-93.09H418.909a46.545 46.545 0 0 0 0 93.09z"/><path d="M512 93.09a465.455 465.455 0 1 0 465.455 465.455A465.455 465.455 0 0 0 512 93.091zm0 837.82a372.364 372.364 0 1 1 372.364-372.365A372.364 372.364 0 0 1 512 930.91z"/></svg>