<svg class="icon" viewBox="0 0 1024 1024" xmlns="http://www.w3.org/2000/svg" width="200" height="200"><defs><style/></defs><path d="M513 64C267.5 62.5 65.8 262.3 64 509c-1.8 246.2 197.4 449.1 442.9 451 248.5 1.9 451.3-196.7 453.1-443.6C961.8 267 762.7 65.5 513 64zm-1.4 813c-199.8.6-364.1-163.5-364.6-364.1-.6-201.1 163-365.6 364-366C712.3 146.5 876.7 310 877 511c.3 202.1-162.8 365.5-365.4 366zm.4-627.7c-28.5 0-51.5 23.1-51.5 51.5v298c0 28.5 23.1 51.5 51.5 51.5 28.5 0 51.5-23.1 51.5-51.5v-298c0-28.5-23-51.5-51.5-51.5zm0 447.7c-28.5 0-51.5 23.1-51.5 51.5v3.1c0 28.5 23.1 51.5 51.5 51.5 28.5 0 51.5-23.1 51.5-51.5v-3.1c0-28.4-23-51.5-51.5-51.5zm0 0"/></svg>